HIERARCHY
ROOT Hips
{
    OFFSET 0.000000 0.000000 0.000000
    CHANNELS 6 Xposition Yposition Zposition Zrotation Xrotation Yrotation
    JOINT Spine
    {
        OFFSET -0.000000 15.010053 0.000000
        CHANNELS 3 Zrotation Xrotation Yrotation
        JOINT Spine1
        {
            OFFSET -0.000000 35.592098 0.000000
            CHANNELS 3 Zrotation Xrotation Yrotation
            JOINT Neck
            {
                OFFSET -0.000000 35.445930 3.222357
                CHANNELS 3 Zrotation Xrotation Yrotation
                JOINT Head
                {
                    OFFSET -0.000000 25.626919 -3.660988
                    CHANNELS 3 Zrotation Xrotation Yrotation
                    End Site
                    {
                        OFFSET -0.000000 36.609886 0.000000
                    }
                }
            }
            JOINT LeftShoulder
            {
                OFFSET 7.265624 32.377697 -0.321253
                CHANNELS 3 Zrotation Xrotation Yrotation
                JOINT LeftArm
                {
                    OFFSET 20.776335 0.000000 0.000000
                    CHANNELS 3 Zrotation Xrotation Yrotation
                    JOINT LeftForeArm
                    {
                        OFFSET 60.928940 0.000000 0.000000
                        CHANNELS 3 Zrotation Xrotation Yrotation
                        JOINT LeftHand
                        {
                            OFFSET 49.361275 0.000000 0.000000
                            CHANNELS 3 Zrotation Xrotation Yrotation
                            End Site
                            {
                                OFFSET 27.457417 0.000000 0.000000
                            }
                        }
                    }
                }
            }
            JOINT RightShoulder
            {
                OFFSET -7.373415 32.377697 -0.321253
                CHANNELS 3 Zrotation Xrotation Yrotation
                JOINT RightArm
                {
                    OFFSET -20.776335 0.000000 0.000000
                    CHANNELS 3 Zrotation Xrotation Yrotation
                    JOINT RightForeArm
                    {
                        OFFSET -60.928940 0.000000 0.000000
                        CHANNELS 3 Zrotation Xrotation Yrotation
                        JOINT RightHand
                        {
                            OFFSET -49.361275 0.000000 0.000000
                            CHANNELS 3 Zrotation Xrotation Yrotation
                            End Site
                            {
                                OFFSET -27.457417 0.000000 0.000000
                            }
                        }
                    }
                }
            }
        }
    }
    JOINT LeftUpLeg
    {
        OFFSET 18.304943 0.000000 0.000000
        CHANNELS 3 Zrotation Xrotation Yrotation
        JOINT LeftLeg
        {
            OFFSET -0.000000 -81.854607 0.000000
            CHANNELS 3 Zrotation Xrotation Yrotation
            JOINT LeftFoot
            {
                OFFSET -0.000000 -73.554253 0.000000
                CHANNELS 3 Zrotation Xrotation Yrotation
                JOINT LeftToeBase
                {
                    OFFSET -0.000000 -11.898212 27.457417
                    CHANNELS 3 Zrotation Xrotation Yrotation
                    End Site
                    {
                        OFFSET -0.000000 0.000000 7.321977
                    }
                }
            }
        }
    }
    JOINT RightUpLeg
    {
        OFFSET -18.304943 0.000000 0.000000
        CHANNELS 3 Zrotation Xrotation Yrotation
        JOINT RightLeg
        {
            OFFSET -0.000000 -81.854607 0.000000
            CHANNELS 3 Zrotation Xrotation Yrotation
            JOINT RightFoot
            {
                OFFSET -0.000000 -73.554253 0.000000
                CHANNELS 3 Zrotation Xrotation Yrotation
                JOINT RightToeBase
                {
                    OFFSET -0.000000 -11.898212 27.457417
                    CHANNELS 3 Zrotation Xrotation Yrotation
                    End Site
                    {
                        OFFSET -0.000000 0.000000 7.321977
                    }
                }
            }
        }
    }
}
MOTION
Frames:    4
Frame Time:    0.008333
-6.044855    176.272461    -12.691048    -0.015763    -1.587724    -0.885834    0.445767    -9.507380    0.742242    2.232903    12.911217    -0.017321    -6.023845    0.819619    -5.346622    7.722118    -8.197004    -3.071710    -6.135184    12.337611    6.206102    -41.197426    43.644524    -26.998705    -21.694736    0.531141    -85.242638    35.232826    -12.133454    23.751743    0.642204    13.883771    -8.175097    53.701172    20.594437    41.028702    51.583328    16.984957    44.242508    -20.050142    -3.903225    -9.370406    8.598573    2.260896    0.140083    -9.635972    3.830202    0.121269    1.586244    -4.869743    13.743933    0.000000    0.000000    0.000000    -3.289573    -4.368607    0.245111    4.687239    13.118270    -0.173526    -2.618040    -8.524563    -2.550692    0.000000    0.000000    0.000000    
-6.034009    176.278824    -12.743357    -0.029606    -1.634276    -0.808994    0.354477    -9.279893    0.712014    2.454588    12.740533    -0.046117    -5.990475    1.104272    -5.285968    7.499961    -8.704264    -3.043585    -6.247061    12.404904    6.248650    -41.723431    43.791897    -26.535845    -21.377720    0.063363    -85.326843    34.599930    -12.463163    23.738781    0.610224    13.809163    -8.282650    53.910477    20.306114    40.747601    52.030937    16.889750    44.086224    -19.504648    -4.110916    -9.826399    8.605299    2.218913    0.056355    -9.629335    3.921780    0.122400    1.584165    -4.879701    13.762252    0.000000    0.000000    0.000000    -3.291161    -4.325737    0.112422    4.680505    13.116206    -0.121122    -2.591222    -8.485639    -2.547998    0.000000    0.000000    0.000000    
-6.029435    176.283401    -12.811941    -0.043339    -1.626570    -0.758244    0.261944    -9.107073    0.723303    2.662938    12.549615    -0.058691    -5.881939    1.382761    -5.215848    7.204484    -9.158786    -3.036757    -6.328969    12.450824    6.258269    -42.142185    43.695400    -26.196207    -21.495306    -0.304092    -85.450836    33.910656    -13.207702    23.500389    0.597965    13.702757    -8.394975    54.005524    20.001408    40.582775    52.175720    17.231504    43.905029    -19.773144    -3.853851    -8.940838    8.618470    2.135551    0.038668    -9.627154    4.001825    0.070144    1.597972    -4.889751    13.788155    0.000000    0.000000    0.000000    -3.284152    -4.341840    0.013346    4.671782    13.105104    -0.095057    -2.598449    -8.450078    -2.529901    0.000000    0.000000    0.000000    
-6.029313    176.283691    -12.881404    -0.067882    -1.593089    -0.721894    0.175538    -8.985696    0.767974    2.897213    12.373569    -0.062645    -5.808148    1.635933    -5.144702    6.947639    -9.532946    -3.020665    -6.428738    12.454082    6.236021    -42.444210    43.406075    -25.994396    -21.657797    -0.389158    -85.551147    33.422138    -13.604570    23.454931    0.526313    13.579484    -8.499377    54.064224    19.707308    40.547234    51.937088    18.014318    43.665623    -20.843380    -3.016359    -7.137013    8.653875    2.048966    0.049529    -9.642428    4.048790    0.030680    1.605922    -4.899790    13.788668    0.000000    0.000000    0.000000    -3.258891    -4.378453    -0.035539    4.664148    13.078431    -0.082753    -2.578733    -8.416595    -2.550508    0.000000    0.000000    0.000000    
